<svg width="63" height="52" viewBox="0 0 63 52" fill="none" xmlns="http://www.w3.org/2000/svg">
<g clip-path="url(#clip0_433_98)">
<path d="M18.1125 4.875H32.2875C32.7206 4.875 33.075 5.24062 33.075 5.6875V9.75H17.325V5.6875C17.325 5.24062 17.6794 4.875 18.1125 4.875ZM12.6 5.6875V9.75H6.3C2.82516 9.75 0 12.6648 0 16.25V26H18.9H34.65H35.4572C38.6367 22.0289 43.4405 19.5 48.825 19.5C49.3566 19.5 49.8783 19.5203 50.4 19.5711V16.25C50.4 12.6648 47.5748 9.75 44.1 9.75H37.8V5.6875C37.8 2.54922 35.3292 0 32.2875 0H18.1125C15.0708 0 12.6 2.54922 12.6 5.6875ZM31.5 35.75H22.05C20.3077 35.75 18.9 34.2977 18.9 32.5V29.25H0V42.25C0 45.8352 2.82516 48.75 6.3 48.75H35.4572C32.9864 45.6625 31.5 41.6914 31.5 37.375C31.5 36.8266 31.5197 36.2883 31.5689 35.75H31.5ZM63 37.375C63 33.4962 61.5066 29.7763 58.8482 27.0336C56.1899 24.2908 52.5844 22.75 48.825 22.75C45.0656 22.75 41.4601 24.2908 38.8018 27.0336C36.1434 29.7763 34.65 33.4962 34.65 37.375C34.65 41.2538 36.1434 44.9737 38.8018 47.7164C41.4601 50.4592 45.0656 52 48.825 52C52.5844 52 56.1899 50.4592 58.8482 47.7164C61.5066 44.9737 63 41.2538 63 37.375ZM48.825 29.25C49.6913 29.25 50.4 29.9812 50.4 30.875V35.75H53.55C54.4163 35.75 55.125 36.4812 55.125 37.375C55.125 38.2688 54.4163 39 53.55 39H48.825C47.9588 39 47.25 38.2688 47.25 37.375V30.875C47.25 29.9812 47.9588 29.25 48.825 29.25Z" fill="#5DBBF0"/>
</g>
<defs>
<clipPath id="clip0_433_98">
<rect width="63" height="52" fill="white"/>
</clipPath>
</defs>
</svg>
