<svg width="49" height="65" viewBox="0 0 49 65" fill="none" xmlns="http://www.w3.org/2000/svg">
<g id="clipboard-check-solid 1" clip-path="url(#clip0_433_114)">
<path id="Vector" d="M24.5 0C19.1661 0 14.6234 3.38965 12.9518 8.125H8.16667C3.66224 8.125 0 11.7686 0 16.25V56.875C0 61.3564 3.66224 65 8.16667 65H40.8333C45.3378 65 49 61.3564 49 56.875V16.25C49 11.7686 45.3378 8.125 40.8333 8.125H36.0482C34.3766 3.38965 29.8339 0 24.5 0ZM24.5 8.125C25.583 8.125 26.6216 8.55301 27.3874 9.31488C28.1531 10.0767 28.5833 11.1101 28.5833 12.1875C28.5833 13.2649 28.1531 14.2983 27.3874 15.0601C26.6216 15.822 25.583 16.25 24.5 16.25C23.417 16.25 22.3784 15.822 21.6126 15.0601C20.8469 14.2983 20.4167 13.2649 20.4167 12.1875C20.4167 11.1101 20.8469 10.0767 21.6126 9.31488C22.3784 8.55301 23.417 8.125 24.5 8.125ZM38.9193 34.6582L22.5859 50.9082C21.3865 52.1016 19.4469 52.1016 18.2602 50.9082L10.0807 42.7832C8.88125 41.5898 8.88125 39.6602 10.0807 38.4795C11.2802 37.2988 13.2198 37.2861 14.4065 38.4795L20.4039 44.4463L34.5807 30.3418C35.7802 29.1484 37.7198 29.1484 38.9065 30.3418C40.0932 31.5352 40.106 33.4648 38.9065 34.6455L38.9193 34.6582Z" fill="#5DBBF0"/>
</g>
<defs>
<clipPath id="clip0_433_114">
<rect width="49" height="65" fill="white"/>
</clipPath>
</defs>
</svg>
