<svg width="61" height="54" viewBox="0 0 61 54" fill="none" xmlns="http://www.w3.org/2000/svg">
<g id="file-circle-check-solid 1" clip-path="url(#clip0_433_106)">
<path id="Vector" d="M0 6.75C0 3.02695 3.03941 0 6.77778 0H23.7222V13.5C23.7222 15.3668 25.2366 16.875 27.1111 16.875H40.6667V20.9461C32.8405 23.1504 27.1111 30.3117 27.1111 38.8125C27.1111 45.0457 30.1929 50.5512 34.9161 53.9262C34.5773 53.9789 34.2384 54 33.8889 54H6.77778C3.03941 54 0 50.973 0 47.25V6.75ZM40.6667 13.5H27.1111V0L40.6667 13.5ZM30.5 38.8125C30.5 34.7845 32.1067 30.9215 34.9666 28.0733C37.8266 25.2251 41.7054 23.625 45.75 23.625C49.7946 23.625 53.6734 25.2251 56.5334 28.0733C59.3933 30.9215 61 34.7845 61 38.8125C61 42.8405 59.3933 46.7035 56.5334 49.5517C53.6734 52.3999 49.7946 54 45.75 54C41.7054 54 37.8266 52.3999 34.9666 49.5517C32.1067 46.7035 30.5 42.8405 30.5 38.8125ZM52.8773 34.2457C52.2207 33.5918 51.1405 33.5918 50.4839 34.2457L44.0556 40.6477L41.0161 37.6207C40.3595 36.9668 39.2793 36.9668 38.6227 37.6207C37.9661 38.2746 37.9661 39.3504 38.6227 40.0043L42.8589 44.223C43.5155 44.877 44.5957 44.877 45.2523 44.223L52.8773 36.6293C53.5339 35.9754 53.5339 34.8996 52.8773 34.2457Z" fill="#5DBBF0"/>
</g>
<defs>
<clipPath id="clip0_433_106">
<rect width="61" height="54" fill="white"/>
</clipPath>
</defs>
</svg>
